<svg width="42" height="16" viewBox="0 0 42 16" fill="none" xmlns="http://www.w3.org/2000/svg">
<path d="M5.30273 0.0195312V1.48047C7.27595 0.283751 7.95335 0.0810547 8.9502 0.0810547C11.2833 0.0810654 12.997 2.27145 12.9971 5.29297C12.9971 8.80076 10.7046 11.1533 7.07617 11.1533C6.67816 11.1533 5.97947 11.1341 5.28223 11.0527L5.30273 14.5801L7.05664 14.9863V16H0.180664V14.9863L1.75488 14.5801V2.37207H0V1.31836L4.20703 0.0195312H5.30273ZM37.7734 0C40.2256 0 41.9004 1.13573 41.9004 2.79883C41.9003 3.87328 41.1233 4.62383 39.9473 4.62402C39.3494 4.62402 38.8507 4.46173 38.2334 4.09668L38.2529 1.17676C36.4387 1.4814 35.502 2.83965 35.502 5.25293C35.502 7.66501 36.7378 9.28703 38.6309 9.28711C39.5077 9.28711 40.3253 8.98289 42 8.15137V10.0977C39.9663 11.0513 38.791 11.3359 37.1562 11.3359C35.3821 11.3359 34.1462 10.8493 33.1289 9.81445C32.0931 8.76071 31.5753 7.36153 31.5752 5.7998C31.5752 2.33276 34.0866 8.30318e-05 37.7734 0ZM29.6211 0C30.6979 3.09302e-05 31.4951 0.831604 31.4951 1.84473C31.4951 2.85984 30.917 3.71103 29.2822 5.7998L25.1758 11.1934H22.2061V4.4209L18.1602 11.1934H15.4492V2.4541L13.3555 2.23047V1.23633L17.1826 0.28418H18.6377V7.40137L22.8633 0.28418H25.415V8.53809L28.0869 4.90723V0.649414C28.3659 0.305085 28.9637 0 29.6211 0ZM6.53809 2.37207C6.23962 2.37207 5.94066 2.41375 5.32227 2.49512L5.30273 9.81445C5.5817 9.83529 5.72092 9.83496 5.90137 9.83496C8.07437 9.83485 9.25 8.4551 9.25 5.7998C9.24991 3.56932 8.2927 2.37209 6.53809 2.37207Z" fill="#252525"/>
</svg>
